<?xml version="1.0" encoding="utf-8"?>
<!-- Generator: Adobe Illustrator 14.0.0, SVG Export Plug-In . SVG Version: 6.00 Build 43363)  -->
<!DOCTYPE svg PUBLIC "-//W3C//DTD SVG 1.1//EN" "http://www.w3.org/Graphics/SVG/1.1/DTD/svg11.dtd">
<svg version="1.1" id="레이어_1" xmlns="http://www.w3.org/2000/svg" xmlns:xlink="http://www.w3.org/1999/xlink" x="0px"
	 y="0px" width="141.73px" height="56.689px" viewBox="0 0 141.73 56.689" enable-background="new 0 0 141.73 56.689"
	 xml:space="preserve">
<g>
	<path fill="#FFFFFF" d="M17.816,22.318h-3.868v4.292h3.305v1.883h-3.305v6.416h-2.235V20.398h6.104V22.318z"/>
	<path fill="#FFFFFF" d="M21.178,34.909h-2.149V20.399h2.149V34.909z"/>
	<path fill="#FFFFFF" d="M29.334,25.545l-2.417,9.244l-0.926,3.541h-2.235l1.003-3.495l-2.444-9.29h2.245l1.271,6.156l1.271-6.156
		H29.334z"/>
	<path fill="#FFFFFF" d="M32.64,24.2h-2.188v-2.188h2.188V24.2z M32.62,34.909h-2.148v-9.364h2.148V34.909z"/>
	<path fill="#FFFFFF" d="M40.682,34.909h-2.197v-7.595l-2.054,0.037v7.558h-2.188v-9.364h2.188v0.343
		c0.509-0.08,1.016-0.158,1.519-0.231c0.624-0.1,1.137-0.148,1.538-0.148c0.796,0,1.194,0.38,1.194,1.14V34.909z"/>
	<path fill="#FFFFFF" d="M48.646,37.172c0,0.771-0.411,1.158-1.232,1.158h-3.801c-0.821,0-1.232-0.387-1.232-1.158V35.67h2.111
		v1.121h1.977v-1.938h-2.244c-0.611,0-1.098-0.167-1.457-0.501c-0.36-0.333-0.54-0.794-0.54-1.381v-5.729
		c0-0.538,0.155-0.962,0.468-1.271c0.312-0.309,0.742-0.463,1.29-0.463c0.272,0,1.102,0.126,2.482,0.38v-0.343h2.178L48.646,37.172
		L48.646,37.172z M46.469,33.147V27.39c-0.731-0.074-1.188-0.111-1.365-0.111c-0.472,0-0.707,0.227-0.707,0.678v4.487
		c0,0.471,0.242,0.704,0.726,0.704L46.469,33.147L46.469,33.147z"/>
	<path fill="#FFFFFF" d="M62.591,28.28H61.54v6.63h-5.854c-0.897,0-1.348-0.437-1.348-1.309v-4.423c0-0.469,0.159-0.84,0.479-1.112
		c0.376-0.247,0.751-0.49,1.127-0.731c-0.363-0.235-0.727-0.474-1.089-0.714c-0.319-0.267-0.479-0.624-0.479-1.075v-3.83
		c0-0.877,0.452-1.316,1.356-1.316h4.537c0.897,0,1.347,0.439,1.347,1.316v3.014H59.43v-2.503h-2.837v3.515l1.013,0.686h4.985
		L62.591,28.28L62.591,28.28z M59.363,33.083V28.28h-1.814l-1.021,0.705v4.1L59.363,33.083L59.363,33.083z"/>
	<path fill="#FFFFFF" d="M75.17,28.298c0,0.903-0.456,1.353-1.365,1.353h-3.62v5.259h-2.235V20.399h5.854
		c0.91,0,1.366,0.445,1.366,1.335L75.17,28.298L75.17,28.298z M72.915,27.789v-5.526h-2.73v5.526H72.915z"/>
	<path fill="#FFFFFF" d="M78.866,24.2h-2.188v-2.188h2.188V24.2z M78.847,34.909h-2.148v-9.364h2.148V34.909z"/>
	<path fill="#FFFFFF" d="M82.677,34.909h-2.147V20.399h2.147V34.909z"/>
	<path fill="#FFFFFF" d="M90.519,34.909h-2.093v-0.324c-0.496,0.074-0.992,0.147-1.489,0.223c-0.649,0.093-1.144,0.139-1.48,0.139
		c-0.796,0-1.192-0.38-1.192-1.141v-3.375c0-0.771,0.409-1.159,1.23-1.159h2.952v-2.149h-2.092v1.335h-1.979v-1.752
		c0-0.772,0.411-1.159,1.232-1.159h3.696c0.809,0,1.213,0.386,1.213,1.159L90.519,34.909L90.519,34.909z M88.446,33.222v-2.513
		h-2.092v2.587L88.446,33.222z"/>
	<path fill="#FFFFFF" d="M96.248,34.909h-2.426c-0.809,0-1.213-0.387-1.213-1.159v-6.397h-1.031v-1.808h1.031v-2.541h2.178v2.541
		h1.403v1.808h-1.403v5.749h1.461V34.909z"/>
	<path fill="#FFFFFF" d="M103.698,33.75c0,0.772-0.41,1.159-1.231,1.159h-3.771c-0.821,0-1.232-0.387-1.232-1.159v-7.046
		c0-0.772,0.411-1.159,1.232-1.159h3.771c0.821,0,1.231,0.386,1.231,1.159v3.439l-0.602,0.584h-3.543v2.624h2.054v-1.558h2.091
		V33.75z M101.607,29.346v-2.243h-2.054v2.243H101.607z"/>
	<path fill="#FFFFFF" d="M111.349,33.75c0,0.772-0.404,1.159-1.213,1.159h-3.678c-0.809,0-1.213-0.387-1.213-1.159v-2.013h2.092
		v1.576h1.92v-1.482l-3.353-1.92c-0.439-0.253-0.659-0.594-0.659-1.021v-2.188c0-0.772,0.41-1.159,1.231-1.159h3.64
		c0.809,0,1.213,0.386,1.213,1.159v1.882h-2.072V27.14h-1.92v1.354l3.344,1.899c0.444,0.248,0.668,0.594,0.668,1.039V33.75
		L111.349,33.75z"/>
</g>
</svg>
